{
  "accessors": [
    {
      "bufferView": 2,
      "componentType": 5126,
      "count": 12000,
      "max": [
        9.4935874938964844,
        5.234400749206543,
        8.7177038192749023
      ],
      "min": [
        -4.4837164878845215,
        -9.3023595809936523,
        -7.7093057632446289
      ],
      "type": "VEC3"
    },
    {
      "bufferView": 2,
      "byteOffset": 144000,
      "componentType": 5126,
      "count": 12000,
      "max": [
        0.99785983562469482,
        0.99919605255126953,
        0.99990421533584595
      ],
      "min": [
        -0.99991416931152344,
        -0.99999094009399414,
        -0.99984902143478394
      ],
      "type": "VEC3"
    },
    {
      "bufferView": 1,
      "componentType": 5126,
      "count": 12000,
      "max": [
        1,
        1
      ],
      "min": [
        0,
        0
      ],
      "type": "VEC2"
    },
    {
      "bufferView": 0,
      "componentType": 5125,
      "count": 18000,
      "max": [
        11999
      ],
      "min": [
        0
      ],
      "type": "SCALAR"
    },
    {
      "bufferView": 2,
      "byteOffset": 288000,
      "componentType": 5126,
      "count": 3451,
      "max": [
        1.6977289915084839,
        1.6777176856994629,
        6.5475144386291504
      ],
      "min": [
        -2.1949493885040283,
        -1.565531849861145,
        0
      ],
      "type": "VEC3"
    },
    {
      "bufferView": 2,
      "byteOffset": 329412,
      "componentType": 5126,
      "count": 3451,
      "max": [
        0.99999988079071045,
        0.99911105632781982,
        0.99482393264770508
      ],
      "min": [
        -0.99999916553497314,
        -0.99923181533813477,
        -0.99662560224533081
      ],
      "type": "VEC3"
    },
    {
      "bufferView": 1,
      "byteOffset": 96000,
      "componentType": 5126,
      "count": 3451,
      "max": [
        1,
        1
      ],
      "min": [
        0,
        0
      ],
      "type": "VEC2"
    },
    {
      "bufferView": 0,
      "byteOffset": 72000,
      "componentType": 5125,
      "count": 16992,
      "max": [
        3450
      ],
      "min": [
        0
      ],
      "type": "SCALAR"
    }
  ],
  "asset": {
    "extras": {
      "author": "Gabriel7567 (https://sketchfab.com/Gabriel7567)",
      "license": "CC-BY-4.0 (http://creativecommons.org/licenses/by/4.0/)",
      "source": "https://sketchfab.com/3d-models/tree-f0b457a918c046a0b9508ba86afe899b",
      "title": "Tree"
    },
    "generator": "Sketchfab-8.51.0",
    "version": "2.0"
  },
  "bufferViews": [
    {
      "buffer": 0,
      "byteLength": 139968,
      "byteOffset": 0,
      "name": "floatBufferViews",
      "target": 34963
    },
    {
      "buffer": 0,
      "byteLength": 123608,
      "byteOffset": 139968,
      "byteStride": 8,
      "name": "floatBufferViews",
      "target": 34962
    },
    {
      "buffer": 0,
      "byteLength": 370824,
      "byteOffset": 263576,
      "byteStride": 12,
      "name": "floatBufferViews",
      "target": 34962
    }
  ],
  "buffers": [
    {
      "byteLength": 634400,
      "uri": "scene.bin"
    }
  ],
  "images": [
    {
      "uri": "textures/Leaves_baseColor.png"
    }
  ],
  "materials": [
    {
      "alphaMode": "BLEND",
      "doubleSided": true,
      "name": "Leaves",
      "pbrMetallicRoughness": {
        "baseColorFactor": [
          1,
          1,
          1,
          1
        ],
        "baseColorTexture": {
          "index": 0,
          "texCoord": 0
        },
        "metallicFactor": 0.08683247298883072,
        "roughnessFactor": 1
      }
    },
    {
      "doubleSided": true,
      "emissiveFactor": [
        0,
        0,
        0
      ],
      "name": "Trunk",
      "pbrMetallicRoughness": {
        "baseColorFactor": [
          0.085152777483763292,
          0.04810747883759442,
          0.04810747883759442,
          1
        ],
        "metallicFactor": 0,
        "roughnessFactor": 0.77639320225002106
      }
    }
  ],
  "meshes": [
    {
      "name": "Plane.562_Leaves_0",
      "primitives": [
        {
          "attributes": {
            "NORMAL": 1,
            "POSITION": 0,
            "TEXCOORD_0": 2
          },
          "indices": 3,
          "material": 0,
          "mode": 4
        }
      ]
    },
    {
      "name": "tree_Trunk_0",
      "primitives": [
        {
          "attributes": {
            "NORMAL": 5,
            "POSITION": 4,
            "TEXCOORD_0": 6
          },
          "indices": 7,
          "material": 1,
          "mode": 4
        }
      ]
    }
  ],
  "nodes": [
    {
      "children": [
        1
      ],
      "name": "RootNode (gltf orientation matrix)",
      "rotation": [
        -0.70710678118654746,
        -0,
        -0,
        0.70710678118654757
      ]
    },
    {
      "children": [
        2
      ],
      "name": "RootNode (model correction matrix)"
    },
    {
      "children": [
        3
      ],
      "matrix": [
        1,
        0,
        0,
        0,
        0,
        0,
        1,
        0,
        0,
        -1,
        0,
        0,
        0,
        0,
        0,
        1
      ],
      "name": "21c1786d2ce7433c9c9dfb76b60992e4.fbx"
    },
    {
      "children": [
        4,
        6
      ],
      "name": "RootNode"
    },
    {
      "children": [
        5
      ],
      "matrix": [
        0.16421084499878344,
        -24.374287884706504,
        20.733231315239411,
        0,
        -7.5685583590074934,
        -20.174807119428063,
        -23.657851973284984,
        0,
        31.091637980807292,
        -4.7823694588043235,
        -5.8684742505967833,
        0,
        -41.508716583251953,
        469.35052490234375,
        -138.43539428710938,
        1
      ],
      "name": "Plane.562"
    },
    {
      "mesh": 0,
      "name": "Plane.562_Leaves_0"
    },
    {
      "children": [
        7
      ],
      "matrix": [
        100,
        0,
        0,
        0,
        0,
        -1.6292067939183141e-05,
        -99.999999999998678,
        0,
        0,
        99.999999999998678,
        -1.6292067939183141e-05,
        0,
        0,
        0,
        0,
        1
      ],
      "name": "tree"
    },
    {
      "mesh": 1,
      "name": "tree_Trunk_0"
    }
  ],
  "samplers": [
    {
      "magFilter": 9729,
      "minFilter": 9987,
      "wrapS": 10497,
      "wrapT": 10497
    }
  ],
  "scene": 0,
  "scenes": [
    {
      "name": "OSG_Scene",
      "nodes": [
        0
      ]
    }
  ],
  "textures": [
    {
      "sampler": 0,
      "source": 0
    }
  ]
}

